<svg class="ldi-33j6i4" width="200px"  height="200px"  xmlns="http://www.w3.org/2000/svg" xmlns:xlink="http://www.w3.org/1999/xlink" viewBox="0 0 100 100" preserveAspectRatio="xMidYMid" style="background: none;"><!--?xml version="1.0" encoding="utf-8"?--><!--Generator: Adobe Illustrator 21.0.0, SVG Export Plug-In . SVG Version: 6.00 Build 0)--><svg version="1.1" id="Layer_1" xmlns="http://www.w3.org/2000/svg" xmlns:xlink="http://www.w3.org/1999/xlink" x="0px" y="0px" viewBox="0 0 100 100" style="transform-origin: 50px 50px 0px;" xml:space="preserve"><g style="transform-origin: 50px 50px 0px;"><g style="transform-origin: 50px 50px 0px; transform: scale(0.6);"><g style="transform-origin: 50px 50px 0px;"><g><style type="text/css" class="ld ld-breath" style="transform-origin: 50px 50px 0px; animation-duration: 1s; animation-delay: -1s; animation-direction: normal;">.st0{fill:#323232;} .st1{fill:#999998;} .st2{fill:#666666;} .st3{fill:#B3B4B4;} .st4{fill:#E6E6E6;} .st5{fill:#ACBD81;} .st6{fill:#849B87;} .st7{fill:#A0C8D7;} .st8{fill:none;stroke:#000000;stroke-width:10;stroke-miterlimit:10;} .st9{fill:#808080;} .st10{fill:#FFFFFF;} .st11{fill:#E6E6E6;stroke:#C1262C;stroke-width:3;stroke-miterlimit:10;}</style><g style="transform-origin: 50px 50px 0px;"><g id="XMLID_151_"><g class="ld ld-breath" style="transform-origin: 50px 50px 0px; animation-duration: 1s; animation-delay: -0.985294s; animation-direction: normal;"><path id="XMLID_334_" class="st1" d="M45.562,19.11c0.037-0.079,0.067-0.143,0.055-0.122C45.598,19.029,45.58,19.07,45.562,19.11z" fill="rgb(153, 153, 152)" style="fill: rgb(153, 153, 152);"></path></g><g class="ld ld-breath" style="transform-origin: 50px 50px 0px; animation-duration: 1s; animation-delay: -0.970588s; animation-direction: normal;"><path id="XMLID_411_" class="st1" d="M45.562,19.11c-0.042,0.091-0.094,0.203-0.11,0.241C45.489,19.271,45.525,19.191,45.562,19.11 z" fill="rgb(153, 153, 152)" style="fill: rgb(153, 153, 152);"></path></g><g class="ld ld-breath" style="transform-origin: 50px 50px 0px; animation-duration: 1s; animation-delay: -0.955882s; animation-direction: normal;"><path id="XMLID_412_" class="st1" d="M44.97,20.275c-0.105,0.194-0.188,0.323-0.179,0.225c-0.191,0.18-0.221,0.337-0.088,0.473 C44.767,20.726,44.863,20.498,44.97,20.275z" fill="rgb(153, 153, 152)" style="fill: rgb(153, 153, 152);"></path></g><g class="ld ld-breath" style="transform-origin: 50px 50px 0px; animation-duration: 1s; animation-delay: -0.941176s; animation-direction: normal;"><path id="XMLID_413_" class="st1" d="M44.97,20.275c0.166-0.307,0.389-0.78,0.4-0.801C45.242,19.748,45.098,20.008,44.97,20.275z" fill="rgb(153, 153, 152)" style="fill: rgb(153, 153, 152);"></path></g><g class="ld ld-breath" style="transform-origin: 50px 50px 0px; animation-duration: 1s; animation-delay: -0.926471s; animation-direction: normal;"><path id="XMLID_414_" class="st1" d="M54.429,38.99c-0.055-0.023-0.102-0.036-0.152-0.053 C54.332,38.997,54.389,39.033,54.429,38.99z" fill="rgb(153, 153, 152)" style="fill: rgb(153, 153, 152);"></path></g><g class="ld ld-breath" style="transform-origin: 50px 50px 0px; animation-duration: 1s; animation-delay: -0.911765s; animation-direction: normal;"><path id="XMLID_415_" class="st1" d="M35.918,37.388l0.451,0.189C36.494,37.378,36.157,37.43,35.918,37.388z" fill="rgb(153, 153, 152)" style="fill: rgb(153, 153, 152);"></path></g><g class="ld ld-breath" style="transform-origin: 50px 50px 0px; animation-duration: 1s; animation-delay: -0.897059s; animation-direction: normal;"><path id="XMLID_416_" class="st1" d="M43.35,23.676C43.385,23.594,43.35,23.676,43.35,23.676L43.35,23.676z" fill="rgb(153, 153, 152)" style="fill: rgb(153, 153, 152);"></path></g><g class="ld ld-breath" style="transform-origin: 50px 50px 0px; animation-duration: 1s; animation-delay: -0.882353s; animation-direction: normal;"><path id="XMLID_417_" class="st1" d="M43.35,23.676C43.548,23.207,43.376,23.582,43.35,23.676L43.35,23.676z" fill="rgb(153, 153, 152)" style="fill: rgb(153, 153, 152);"></path></g><g class="ld ld-breath" style="transform-origin: 50px 50px 0px; animation-duration: 1s; animation-delay: -0.867647s; animation-direction: normal;"><path id="XMLID_418_" class="st1" d="M30.126,36.055c0.087-0.066,0.175-0.132,0.262-0.197 C29.005,35.789,30.369,35.902,30.126,36.055z" fill="rgb(153, 153, 152)" style="fill: rgb(153, 153, 152);"></path></g><g class="ld ld-breath" style="transform-origin: 50px 50px 0px; animation-duration: 1s; animation-delay: -0.852941s; animation-direction: normal;"><path id="XMLID_419_" class="st1" d="M36.818,30.89c0.09-0.264,0.009-0.423-0.242-0.478c-0.052,0.041-0.015,0.047,0.011,0.039 C36.612,30.621,36.685,30.769,36.818,30.89z" fill="rgb(153, 153, 152)" style="fill: rgb(153, 153, 152);"></path></g><g class="ld ld-breath" style="transform-origin: 50px 50px 0px; animation-duration: 1s; animation-delay: -0.838235s; animation-direction: normal;"><path id="XMLID_420_" class="st1" d="M30.909,38.082c-0.114,0.079-0.197,0.15-0.231,0.19 C30.784,38.205,30.856,38.142,30.909,38.082z" fill="rgb(153, 153, 152)" style="fill: rgb(153, 153, 152);"></path></g><g class="ld ld-breath" style="transform-origin: 50px 50px 0px; animation-duration: 1s; animation-delay: -0.823529s; animation-direction: normal;"><path id="XMLID_421_" class="st1" d="M51.614,86.442c-0.012-0.003-0.019,0.004-0.029,0.003 C51.6,86.474,51.612,86.482,51.614,86.442z" fill="rgb(153, 153, 152)" style="fill: rgb(153, 153, 152);"></path></g><g class="ld ld-breath" style="transform-origin: 50px 50px 0px; animation-duration: 1s; animation-delay: -0.808824s; animation-direction: normal;"><path id="XMLID_422_" class="st1" d="M59.164,40.037c-0.009-0.005-0.012-0.007-0.02-0.012 C59.012,40.072,59.084,40.068,59.164,40.037z" fill="rgb(153, 153, 152)" style="fill: rgb(153, 153, 152);"></path></g><g class="ld ld-breath" style="transform-origin: 50px 50px 0px; animation-duration: 1s; animation-delay: -0.794118s; animation-direction: normal;"><path id="XMLID_423_" class="st1" d="M69.029,37.011c0.077,0.019,0.153,0.014,0.232-0.062 C69.146,36.943,69.085,36.977,69.029,37.011z" fill="rgb(153, 153, 152)" style="fill: rgb(153, 153, 152);"></path></g><g class="ld ld-breath" style="transform-origin: 50px 50px 0px; animation-duration: 1s; animation-delay: -0.779412s; animation-direction: normal;"><path id="XMLID_424_" class="st1" d="M62.631,39.329l0.315,0.103C62.813,39.37,62.715,39.344,62.631,39.329z" fill="rgb(153, 153, 152)" style="fill: rgb(153, 153, 152);"></path></g><g class="ld ld-breath" style="transform-origin: 50px 50px 0px; animation-duration: 1s; animation-delay: -0.764706s; animation-direction: normal;"><path id="XMLID_425_" class="st1" d="M64.698,31.308c-0.066,0.106-0.025,0.198,0.124,0.276c-0.006-0.029-0.009-0.053-0.01-0.07 C64.802,31.433,64.771,31.362,64.698,31.308z" fill="rgb(153, 153, 152)" style="fill: rgb(153, 153, 152);"></path></g><g class="ld ld-breath" style="transform-origin: 50px 50px 0px; animation-duration: 1s; animation-delay: -0.75s; animation-direction: normal;"><path id="XMLID_426_" class="st1" d="M64.812,31.514c0.003,0.024,0.013,0.044,0.01,0.07C64.824,31.471,64.809,31.463,64.812,31.514 z" fill="rgb(153, 153, 152)" style="fill: rgb(153, 153, 152);"></path></g><g class="ld ld-breath" style="transform-origin: 50px 50px 0px; animation-duration: 1s; animation-delay: -0.735294s; animation-direction: normal;"><path id="XMLID_427_" class="st1" d="M62.515,27.78C62.431,27.932,62.537,28.129,62.515,27.78L62.515,27.78z" fill="rgb(153, 153, 152)" style="fill: rgb(153, 153, 152);"></path></g><g class="ld ld-breath" style="transform-origin: 50px 50px 0px; animation-duration: 1s; animation-delay: -0.720588s; animation-direction: normal;"><path id="XMLID_428_" class="st1" d="M52.686,72.886c-0.144,0.097-0.295,0.156-0.444,0.202 C52.585,73.023,52.636,73.684,52.686,72.886z" fill="rgb(153, 153, 152)" style="fill: rgb(153, 153, 152);"></path></g><g class="ld ld-breath" style="transform-origin: 50px 50px 0px; animation-duration: 1s; animation-delay: -0.705882s; animation-direction: normal;"><path id="XMLID_429_" class="st1" d="M43.284,23.636C43.256,23.66,43.399,23.93,43.284,23.636L43.284,23.636z" fill="rgb(153, 153, 152)" style="fill: rgb(153, 153, 152);"></path></g><g class="ld ld-breath" style="transform-origin: 50px 50px 0px; animation-duration: 1s; animation-delay: -0.691176s; animation-direction: normal;"><path id="XMLID_430_" class="st1" d="M60.951,32.936c0.065,0.199,0.183,0.437,0.321,0.657L60.951,32.936z" fill="rgb(153, 153, 152)" style="fill: rgb(153, 153, 152);"></path></g><g class="ld ld-breath" style="transform-origin: 50px 50px 0px; animation-duration: 1s; animation-delay: -0.676471s; animation-direction: normal;"><path id="XMLID_431_" class="st1" d="M53.206,40.632l0.06,0.165C53.278,40.734,53.264,40.676,53.206,40.632z" fill="rgb(153, 153, 152)" style="fill: rgb(153, 153, 152);"></path></g><g class="ld ld-breath" style="transform-origin: 50px 50px 0px; animation-duration: 1s; animation-delay: -0.661765s; animation-direction: normal;"><path id="XMLID_432_" class="st1" d="M59.701,30.594c0.021,0.179,0.042,0.359,0.062,0.538 C60.016,30.73,59.995,30.551,59.701,30.594z" fill="rgb(153, 153, 152)" style="fill: rgb(153, 153, 152);"></path></g><g class="ld ld-breath" style="transform-origin: 50px 50px 0px; animation-duration: 1s; animation-delay: -0.647059s; animation-direction: normal;"><path id="XMLID_433_" class="st1" d="M60.982,40.116c-0.06-0.004-0.104-0.02-0.152-0.033 C60.868,40.097,60.916,40.108,60.982,40.116z" fill="rgb(153, 153, 152)" style="fill: rgb(153, 153, 152);"></path></g><g class="ld ld-breath" style="transform-origin: 50px 50px 0px; animation-duration: 1s; animation-delay: -0.632353s; animation-direction: normal;"><path id="XMLID_434_" class="st1" d="M48.592,63.271c0.004,0.024-0.007,0.04,0.004,0.067C48.632,63.36,48.61,63.301,48.592,63.271z " fill="rgb(153, 153, 152)" style="fill: rgb(153, 153, 152);"></path></g><g class="ld ld-breath" style="transform-origin: 50px 50px 0px; animation-duration: 1s; animation-delay: -0.617647s; animation-direction: normal;"><path id="XMLID_435_" class="st1" d="M38.07,29.427c-0.016,0.047-0.004,0.097-0.012,0.144 C38.088,29.507,38.099,29.454,38.07,29.427z" fill="rgb(153, 153, 152)" style="fill: rgb(153, 153, 152);"></path></g><g class="ld ld-breath" style="transform-origin: 50px 50px 0px; animation-duration: 1s; animation-delay: -0.602941s; animation-direction: normal;"><path id="XMLID_436_" class="st1" d="M38.962,28.793c-0.085,0.011-0.173,0.008-0.265-0.034 C38.781,28.849,38.869,28.851,38.962,28.793z" fill="rgb(153, 153, 152)" style="fill: rgb(153, 153, 152);"></path></g><g class="ld ld-breath" style="transform-origin: 50px 50px 0px; animation-duration: 1s; animation-delay: -0.588235s; animation-direction: normal;"><path id="XMLID_437_" class="st1" d="M38.962,28.793c0,0,0.001,0,0.001,0c0.014-0.006,0.03-0.019,0.04-0.017 C38.989,28.788,38.976,28.784,38.962,28.793z" fill="rgb(153, 153, 152)" style="fill: rgb(153, 153, 152);"></path></g><g class="ld ld-breath" style="transform-origin: 50px 50px 0px; animation-duration: 1s; animation-delay: -0.573529s; animation-direction: normal;"><path id="XMLID_438_" class="st1" d="M35.138,34.731c-0.009,0.004-0.024,0.015-0.035,0.02c-0.016,0.016-0.031,0.029-0.05,0.054 C35.124,34.802,35.152,34.777,35.138,34.731z" fill="rgb(153, 153, 152)" style="fill: rgb(153, 153, 152);"></path></g><g class="ld ld-breath" style="transform-origin: 50px 50px 0px; animation-duration: 1s; animation-delay: -0.558824s; animation-direction: normal;"><path id="XMLID_439_" class="st1" d="M58.901,39.79c-0.054,0.004-0.115,0.015-0.19,0.041C58.793,39.829,58.855,39.814,58.901,39.79 z" fill="rgb(153, 153, 152)" style="fill: rgb(153, 153, 152);"></path></g><g class="ld ld-breath" style="transform-origin: 50px 50px 0px; animation-duration: 1s; animation-delay: -0.544118s; animation-direction: normal;"><path id="XMLID_440_" class="st1" d="M58.178,28.281c-0.054-0.044-0.106-0.077-0.155-0.098 C58.091,28.233,58.141,28.264,58.178,28.281z" fill="rgb(153, 153, 152)" style="fill: rgb(153, 153, 152);"></path></g><g class="ld ld-breath" style="transform-origin: 50px 50px 0px; animation-duration: 1s; animation-delay: -0.529412s; animation-direction: normal;"><path id="XMLID_441_" class="st1" d="M61.46,35.726c0.122-0.026,0.145,0.054,0.111,0.187C61.665,35.769,61.633,35.703,61.46,35.726 z" fill="rgb(153, 153, 152)" style="fill: rgb(153, 153, 152);"></path></g><g class="ld ld-breath" style="transform-origin: 50px 50px 0px; animation-duration: 1s; animation-delay: -0.514706s; animation-direction: normal;"><path id="XMLID_442_" class="st1" d="M61.539,35.964c0.006-0.005,0.011-0.006,0.017-0.011c0.004-0.012,0.012-0.028,0.015-0.04 C61.559,35.931,61.554,35.945,61.539,35.964z" fill="rgb(153, 153, 152)" style="fill: rgb(153, 153, 152);"></path></g><g class="ld ld-breath" style="transform-origin: 50px 50px 0px; animation-duration: 1s; animation-delay: -0.5s; animation-direction: normal;"><path id="XMLID_445_" class="st1" d="M55.621,14.471c-0.68-0.178-1.233-0.674-1.495-1.325c0.741-0.238,0.385-2.575-0.085-4.156 c0.02-0.222,0.024-0.444,0.002-0.668c-0.071,0.013-0.141,0.025-0.212,0.038c-0.16-0.431-0.318-0.739-0.436-0.805 c-0.419-0.234-1.964,0.351-2.442,0.436c-1.135,0.203-1.586,0.067-1.608,1.171c-0.058,0.01-0.117,0.021-0.175,0.031 c0.137,0.262,0.299,0.567,0.431,0.883c-0.089,0.026-0.173,0.088-0.242,0.227c0.12-0.128,0.217-0.134,0.304-0.087 c0.138,0.372,0.214,0.761,0.12,1.127c0.052-0.035,0.104-0.07,0.156-0.105c-0.02,0.025-0.037,0.045-0.048,0.056 c-0.472,0.47-0.215-0.193-0.603-0.147c-0.089,0.728-0.48,0.324-0.786,0.846c0.458,0.025,0.595,0.269,0.413,0.732 c0.131-0.234,0.384-0.401,0.527-0.628c0.481,0.918-0.856,1.138-0.378,2.066c-0.116-0.119-0.233-0.238-0.349-0.357 c0.301,0.859-0.059,2.095,0.861,2.682c-0.185,0.169-0.357,0.161-0.518-0.024c-0.086,0.769,1.082,4.116,0.078,4.003 c0.075,0.254,0.5,0.462,0.23,0.766c-0.105-0.069-0.202-0.065-0.291,0.012c0.166,0.244,0.462,0.706,0.308,1.02 c-0.102-0.098-0.204-0.195-0.305-0.293c-0.227,0.801,0.123,1.258,0.4,1.957c0.188,0.279,0.322,0.58,0.402,0.903 c0.224,0.349,0.086,0.509-0.415,0.48c-0.462,1.2-0.962,1.262-0.718,2.659c0.118,0.671,0.519,1.305,0.605,1.97 c0.179,1.388-0.088,0.566-0.223,1.696c-0.138,1.146-0.079,2.485-0.471,3.581c0.135-0.195,0.484,0.122,0.698,0.463 c-0.44,0.2-1.127-0.049-1.441,0.445c0.108-0.179,0.145-0.37,0.11-0.573c-0.084,0.152-0.169,0.303-0.253,0.455 c-0.183-0.115-0.254-0.756-0.526-0.475c-0.252,0.261,0.331,0.758-0.42,0.425c0.056-0.069,0.122-0.126,0.199-0.171 c-0.822-0.203-1.94,0.364-2.694-0.025c-0.325-0.167,0.62-0.455,0.488-0.738c-1.273,0.086-2.528,0.774-3.823,0.577 c0.452,0.952-0.808-0.312-1.29,0.04c0.119-0.125,0.173-0.268,0.16-0.431c-0.947-0.187-1.765,0.28-2.632,0.533 c0.068-0.083,0.136-0.167,0.204-0.25c-0.501-0.516-1.368-0.138-1.705,0.339c0.198-0.982-1.576-0.194-1.996-0.096 c0.107-0.004,1.035-0.807,1.37-0.985c0.18-0.179,0.225,0.113,0.362-0.398c-0.176,0.062-1.264,0.68-1.377,0.446 c-0.087-0.179,2.361-0.94,0.964-0.579c0.186-0.008,0.316-0.08,0.39-0.218c-0.163-0.054-0.375,0.066-0.533-0.02 c-0.041-0.022,0.551-0.436,0.557-0.445c0.539-0.701,0.125-0.255,0.598-0.191c0.249-0.301-0.178-0.89,0.446-0.979 c-0.197,0.775,0.28,0.524,0.744,0.161c0.1-0.068,0.204-0.14,0.204-0.14c-0.051,0.028-0.088,0.054-0.131,0.082 c0.14-0.114,0.277-0.233,0.389-0.333c-0.073,0.032-0.146,0.064-0.219,0.096c-0.261-0.948,0.687-1.258,0.765-2.126 c-0.207,1.768,1.945-1.047,1.902-1.054c-0.101,0.062-0.211,0.095-0.329,0.099c0.209-0.817,1.133-1.485,1.512-2.225 c0.147-0.286,0.807-1.692,0.964-2.185c-0.013,0.06-0.017,0.123-0.04,0.181c0.271-0.3,0.658-0.933,0.826-1.139 c0.095-0.117,0.571-1.404,0.324-0.331c0.166-0.421,0.34-0.839,0.522-1.254c0.025,0.16-0.005,0.312-0.092,0.458 c0.162-0.372,0.552-0.966,0.588-1.391c-0.045,0.108-0.26,0.89-0.504,0.903c0.048-0.098,0.095-0.197,0.143-0.295 c-0.456,0.265-0.732,1.307-0.968,1.716c-0.008-0.114-0.017-0.227-0.025-0.341c-0.058,0.224-0.144,0.443-0.211,0.665 c-0.199,0.113-0.243,0.051-0.133-0.185c-0.34,0.31-0.541,0.646-0.724,1.033c-0.101-0.068-0.102-0.151-0.003-0.25 c-0.287,0.267-0.824,1.12-0.948,1.248c-0.37,0.601,0.157,1.408-1.008,1.169c0.031,0.189-0.418,1.773-1.097,1.863 c-0.194,0.09-0.687,0.974-0.928,1.073c-0.017-0.101,0.007-0.197,0.024-0.295c-0.35,0.786-4.6,4.149-5.186,4.373 c1.338,0.155-1.434,1.436-1.366,1.407c-0.298,0.128-0.606-0.067-1.119,0.506c0.919,0.03-0.625,0.659-0.587,0.631 c-0.561,0.405-1.008,0.34-1.524,1.022c0.294-0.09,1.554-0.379,1.236,0.324c1.191-0.572,2.288-1.399,3.596-1.696 c-0.549,0.296-1.165,0.674-1.778,0.822c-0.009,0.002,0.694-0.165,0.67-0.116c-0.423,0.152-0.845,0.304-1.268,0.456 c0.094,0.197,1.03-0.37,1.22-0.344c-0.528,0.286-0.768,0.385-1.286,0.569c0.354,0.07,0.435,0.255,0.241,0.557 c0.204-0.146,1.19-0.786,1.527-0.532c0.147,0.111-0.623,0.446-0.375,0.599c0.575-0.267,0.988-0.115,1.511-0.565 c0.143,0.125,0.134,0.26-0.027,0.406c0.715-0.243,2.057-0.049,2.18-0.744c1.184-0.414,2.38,0.041,3.574,0.095 c0.233,0.011,2.771-0.491,2.485,0.229c0.538-0.138,0.69-0.269,1.257-0.017c-0.463,0.284,0.111,0.279-0.511,0.222 c0.621,0.164,0.861,0.402,1.468-0.013c-0.257,0.48,0.537,0.567,0.77,0.468c-0.145-0.115-0.291-0.23-0.436-0.345 c0.316-0.041,0.63-0.027,0.941,0.04c-0.747,1.461,2.542-0.126,3.153,0.717c0.359-0.405-0.687-0.342-0.363-0.819 c0.47,0.087,0.719,0.594,1.052,0.865c-0.147,0.653,0.087,1.355,0.079,2.084c-0.011,1.029-0.562,1.767,0.056,2.65 c-1.017-0.214-0.686,1.933-0.628,2.558c-0.123-0.081-0.246-0.162-0.369-0.243c-0.05,0.793,1.484,0.712,1.512,1.459 c-1.313-0.067-1.3,2.773-0.789,3.621c-0.173-0.003-0.295-0.084-0.367-0.243c-0.025,0.491-0.534,2.082,0.516,1.903 c-0.76,0.005,0.096,1.56,0.215,1.809c-0.17-0.034-0.34-0.069-0.511-0.103c0.507,0.417,0.842,0.621,0.998,1.285 c-0.178,0.18-0.271,0.152-0.278-0.082c-0.247,0.515,0.43,0.579,0.197,1.153c-0.108-0.088-0.216-0.177-0.324-0.265 c-0.039,0.489,1.279,1.845-0.102,2.088c0.378,0.116,0.55,0.37,0.517,0.763c-0.145,0.019-0.257-0.031-0.335-0.149 c-0.378,1.033,0.509,1.461-0.243,2.274c-0.002,0.069,0.146-1.282,0.095-1.365c-0.592-0.008-0.569,0.626-1.209,0.115 c0.348,0.514,1.351,1.739,0.665,2.036c-0.234,0.683-0.513,1.667,0.036,2.033c0.301,0.2,0.404-0.017,0.431-0.323 c0.085,0.22,0.038-0.073,0.008-0.138c0.007-0.321-0.044-0.683-0.047-0.785c0.603,0.592,0.158,0.767,1.013,1.323 c-1.154,0.676-1.588,1.345-1.342,2.554c0.18,0.887,1.21,1.647,0.425,2.144c-0.038-0.162-0.109-0.308-0.211-0.438 c0.205,0.507,0.026,1.628,0.763,1.777c-0.167,0.385-0.499,0.092-0.53,0.164c-0.2,0.486-0.436,0.906-0.217,1.866 c0.301,1.319,1.293,2.093,0.546,3.546c0.332-0.751,0.086,1.144,0.086,1.196c-0.001,0.611,0.08,1.222,0.128,1.83 c0.122,1.553-0.04,3.147,0.154,4.674c0.131,1.029,0.139,3.059,0.617,4.277c0.023-0.057,0.047-0.115,0.071-0.172 c0.193,1.64,0.572,3.336,1.22,4.886c0.004,0.017,0.012,0.034,0.015,0.052c-0.001-0.006-0.002-0.011-0.003-0.017l0,0.001 c0-0.001,0-0.001,0-0.001c-0.12-0.543-0.197-1.115-0.245-1.666c0.026,0.202,0.053,0.403,0.079,0.605 c-0.027-0.607-0.099-1.214-0.282-1.796c-0.024,0.048,0.025-1.047,0.055-0.866c-0.206-1.082-0.18-2.211-0.213-3.255 c0.166,0.284,0.296-0.854,0.315-1.024c0.055-0.497,0.091-1.75-0.071-2.45c0.47,0.607,0.035-1.214,0.031-1.113 c0.048-1.405-0.266-0.142,0.611-0.506c-0.737,0.059-0.444-1.112-0.008-1.334c-1.043-0.139,0.304-1.617,0.294-1.625 c0.092,0.101,0.154,0.217,0.186,0.348c0.102-0.661-0.39-0.296-0.713-0.472c-0.07-0.818,0.329-0.296,0.709-0.643 c-0.054-0.404-0.861-3.509-0.484-3.595c-0.591,0.18-1.403-0.441-0.81-0.596c0.025,0.155,0.114,0.253,0.268,0.294 c-0.054-0.107-0.108-0.215-0.162-0.322c0.658-0.3,0.121,0.438,0.614,0.444c-0.105-0.481-0.63-1.31-0.41-1.833 c0.582-0.085,0.175,1.071,0.718,0.489c-0.133,0.223-0.155,0.512-0.288,0.736c0.342-0.192,0.738,0.235,0.936-0.058 c0.173-0.255,0.154-1.46,0.045-1.684c-0.058-0.118-0.863-0.615-0.837-0.532c-0.309-0.977,0.586-0.747,0.751-1.372 c0.227-0.858-1.232-1.08-0.796-1.815c0.209,0.124,0.501,0.122,0.704,0.255c0.068-0.799-0.942-0.684-0.521-1.531 c0.015,0.01,0.342,0.548,0.31,0.602c0.557-0.622-0.395-0.421-0.388-0.948c0.209-0.031,0.418-0.062,0.626-0.094 c-0.093-1.096-0.524-2.13-0.622-3.226c0.894,0.309,0.519-1.848,0.638-2.558c0.135-0.809,0.839-1.785-0.095-2.301 c0.08-0.158,0.197-0.188,0.349-0.088c0.189-0.469-0.38-0.078-0.55-0.288c0.058-0.311,0.216-0.378,0.475-0.2 c-0.27-0.567-1.095-3.778-0.203-3.438c0.092-0.307-0.529-1.463-0.535-1.507c-0.07-0.442,0.085-2.1,0.152-2.799 c0.059-0.616,0.95-3.495-0.204-3.624c0.238-0.407,0.821-0.883,0.909-1.364c0.23-1.256-0.318-0.576-0.569-1.605 c0.189-0.001,0.378-0.002,0.566-0.003c-0.23-0.146-0.368-0.441-0.586-0.604c0.693-0.333,0.54-0.135,0.542-0.723 c-0.072,0.198-0.212,0.304-0.421,0.318c-0.313-0.816,0.623-1.154,0.681-1.655c0.021-0.178-0.048-0.416-0.135-0.658 c0.296,0.017,0.593,0.034,0.887,0.135c-0.143-0.116-0.174-0.244-0.09-0.382c1.258,0.392,0.262-0.256,0.951-0.282 c0.543-0.021,0.176,0.081,0.536,0.256c0.313,0.152,0.966,0.385,0.291,0.922c0.734-0.357,1.103,0.327,1.721,0.495 c-0.131,0.048-0.261,0.096-0.392,0.144c0.779-0.284,0.607,0.136,0.428-0.503c0.2,0.015,0.328,0.112,0.383,0.292 c-0.031,0.033,1.213-2.278,1.351-0.658c-0.648-0.2-0.236,0.402-0.556,0.568c0.339-0.024,0.346,0.324,0.746,0.354 c0.311,0.024,0.355-0.682,0.908-0.623c-0.079,0.311,0.019,0.494,0.276,0.562c-0.499-0.18,1.314-0.838,1.801-0.754 c-0.176-0.058-0.352-0.117-0.528-0.175c0.272-0.274,0.605-0.369,1.001-0.285c0.11,0.193-0.311,0.201-0.194,0.269 c0.361-0.452,2.557,0.648,3.024,0.814c0.881,0.314,2.46,1.359,3.583,1.028c-0.5-0.268-0.936-0.301-0.729-0.852 c-0.514,0.05-1.029,0.092-1.545,0.127c0.18-0.179,0.224-0.411,0.38-0.598c-0.407,0.045-0.816,0.065-1.226,0.058 c0.181-0.401-0.115-0.431-0.474-0.674c0.876,0.504,1.611,0.098,2.537,0.58c1.039,0.541,1.889,1.74,3.263,1.28 c-0.728-0.793-1.733-1.589-2.168-2.602c0.002,0.107,0,0.215-0.007,0.322c-0.65-0.4-0.807-1.012-1.329-1.512 c0.466,0.193,0.482,0.118,0.81-0.097c-0.618-0.132-1.59-1.536-1.773-1.769c-0.215-0.274-0.283-0.868-0.755-1.254 c-0.548-0.447-1.321-0.518-1.677-1.22c0.625,0.144,0.563-0.411,1.217,0.153c-0.496-0.768-1.675-1.506-1.919-1.792 c-0.282,0.173-0.458-0.392-0.673,0.142c0.467-1.341-1.604-3.984-2.227-5c0.082-0.066,0.143-0.056,0.181,0.029 c-0.094-0.772-0.844-0.1-1.113-0.533c-0.317-0.511-0.066-0.757,0.325-0.414c0.701,0.615-0.06-1.421-0.021-1.049 c-0.034-0.318-0.158-0.966-0.242-1.11c-0.743-1.272-1.885-1.604-2.897-2.843c0.409,0.001,0.422,0.151,0.735-0.145 c-0.129-0.165-2.132-0.184-0.517-1.245c0.101,0.186,0.202,0.373,0.303,0.559c0.494-0.649-0.748-0.777-0.148-1.167 c-0.416-0.684-1.247-0.725-1.564-1.508c-0.827,0.296-0.135-0.475-0.714-0.712c0.216-0.113,0.368-0.352,0.587-0.459 c-0.546-0.467-1.162-0.893-1.584-1.486c0.669,0.14,1.165,0.708,1.715,1.061c-0.142-0.331-0.527-1.132-0.974-1.169 C55.473,14.155,55.582,14.286,55.621,14.471z M48.596,63.338c-0.033-0.099-0.019-0.093-0.004-0.067 c-0.021-0.119,0.015-0.206,0.142-0.243C48.757,63.329,48.995,63.582,48.596,63.338z M52.239,62.223 c-0.012-0.11-0.024-0.219-0.035-0.329C52.32,61.893,52.331,62.003,52.239,62.223z M51.938,61.133 c-0.221-0.081,0.219-0.504,0.274-0.575C52.383,61.03,52.292,61.222,51.938,61.133z M53.419,35.71 c-0.01,0.002-0.019,0.001-0.029,0.003c-0.001-0.004-0.002-0.009-0.002-0.014C53.398,35.703,53.409,35.706,53.419,35.71z M54.646,20.593c-0.226-0.05-0.476,0.001-0.701-0.054c1.498,1.451,1.813,3.689,3.31,5.136c-0.166,0.033-0.31-0.008-0.431-0.123 c-0.134,0.407,0.532,1.462,1.034,1.194c-0.034,0.204-0.14,0.361-0.317,0.473c0.059,0.26,0.213,0.445,0.46,0.554 c-0.006-0.022,0.44,0.625,0.177,0.508c0.791,0.634,2.133,3.527,2.851,3.228c-0.781,0.408,0.188,1.485,0.684,1.642 c-0.664,0.001-0.096,1.669,0.597,0.982c-0.389,0.506,0.946,0.737-0.125,0.678c0.823,0.323,1.523,1.007,2.143,1.614 c-0.024-0.098-1.704-1.129-1.887-1.221c0.105,0.07,1.438,0.97,1.162,1.116c-0.627,0.33-1.092-1.187-2.045-0.366 c-0.123,0.405-0.674,1.216-0.707,1.309c0.427-0.888-1.014-0.597-0.384-1.678c-0.22,0.077-0.34,0.233-0.358,0.47 c-0.254-0.133-0.261-0.304-0.022-0.511c-0.548,0.081-0.783,0.533-1.351,0.476c0.068-0.163,0.16-0.311,0.275-0.445 c-0.427,0.328-0.891,0.624-1.457,0.437c-0.017-0.136,0.042-0.215,0.176-0.236c-1.083-0.039-2.03,0.766-3.126,0.364 c0.29-0.539-0.315-0.907-0.808-0.875c0.013-1.029-0.169-2.059-0.15-3.088c-0.139,0.335-0.85,0.421-0.924-0.033 c0.068-0.016,0.137-0.032,0.205-0.048c-0.051,0.006-0.129-0.035-0.282-0.206c0.075-0.469,0.705-0.28,0.877-0.035 c-0.067-0.193-0.134-0.386-0.2-0.578c0.174,0.022,0.34,0.069,0.499,0.143c-0.413-0.27,0.611-0.987-0.027-1.335 c0.235-0.355,0.135-0.991,0.096-1.557c-0.061-0.448-0.098-0.898-0.111-1.351c-0.269-0.026-0.446-0.165-0.531-0.417 c-0.183-0.795,0.253-1.273,0.231-2.162c-0.029-1.182-0.094-0.583-0.689-1.157c0.251-0.022,0.525-0.831,0.771-0.477 c-0.055-0.965-0.196-1.859-0.44-2.795c-0.106,0.169-0.252,0.244-0.44,0.226c-0.154-0.526,0.364-0.4,0.479-0.464 c-0.117-0.268-0.145-0.536-0.139-0.805c0.259,0.493,0.334,0.094,0.848,0.647C54.241,20.175,54.755,19.568,54.646,20.593z" fill="rgb(153, 153, 152)" style="fill: rgb(153, 153, 152);"></path></g><g class="ld ld-breath" style="transform-origin: 50px 50px 0px; animation-duration: 1s; animation-delay: -0.485294s; animation-direction: normal;"><path id="XMLID_450_" class="st1" d="M52.962,32.083c-0.012,0.003-0.025,0.006-0.037,0.009 C52.938,32.09,52.952,32.091,52.962,32.083z" fill="rgb(153, 153, 152)" style="fill: rgb(153, 153, 152);"></path></g><g class="ld ld-breath" style="transform-origin: 50px 50px 0px; animation-duration: 1s; animation-delay: -0.470588s; animation-direction: normal;"><path id="XMLID_451_" class="st1" d="M52.203,61.895C52.221,62.06,52.208,61.895,52.203,61.895L52.203,61.895z" fill="rgb(153, 153, 152)" style="fill: rgb(153, 153, 152);"></path></g><g class="ld ld-breath" style="transform-origin: 50px 50px 0px; animation-duration: 1s; animation-delay: -0.455882s; animation-direction: normal;"><path id="XMLID_452_" class="st1" d="M52.213,60.559C52.059,60.756,52.19,60.721,52.213,60.559L52.213,60.559z" fill="rgb(153, 153, 152)" style="fill: rgb(153, 153, 152);"></path></g><g class="ld ld-breath" style="transform-origin: 50px 50px 0px; animation-duration: 1s; animation-delay: -0.441176s; animation-direction: normal;"><path id="XMLID_453_" class="st1" d="M52.962,32.083c0.12-0.028,0.239-0.056,0.359-0.084 C53.047,31.816,53.041,32.024,52.962,32.083z" fill="rgb(153, 153, 152)" style="fill: rgb(153, 153, 152);"></path></g><g class="ld ld-breath" style="transform-origin: 50px 50px 0px; animation-duration: 1s; animation-delay: -0.426471s; animation-direction: normal;"><path id="XMLID_454_" class="st1" d="M35.726,37.307C35.727,37.305,35.716,37.196,35.726,37.307L35.726,37.307z" fill="rgb(153, 153, 152)" style="fill: rgb(153, 153, 152);"></path></g><g class="ld ld-breath" style="transform-origin: 50px 50px 0px; animation-duration: 1s; animation-delay: -0.411765s; animation-direction: normal;"><path id="XMLID_455_" class="st1" d="M53.441,42.124C53.35,42.195,53.309,42.226,53.441,42.124L53.441,42.124z" fill="rgb(153, 153, 152)" style="fill: rgb(153, 153, 152);"></path></g><g class="ld ld-breath" style="transform-origin: 50px 50px 0px; animation-duration: 1s; animation-delay: -0.397059s; animation-direction: normal;"><path id="XMLID_456_" class="st1" d="M35.781,34.038c-0.045,0.011-0.123,0.041-0.213,0.08 C35.634,34.098,35.707,34.072,35.781,34.038z" fill="rgb(153, 153, 152)" style="fill: rgb(153, 153, 152);"></path></g><g class="ld ld-breath" style="transform-origin: 50px 50px 0px; animation-duration: 1s; animation-delay: -0.382353s; animation-direction: normal;"><path id="XMLID_457_" class="st1" d="M38.725,30.812C38.723,30.807,38.504,30.47,38.725,30.812L38.725,30.812z" fill="rgb(153, 153, 152)" style="fill: rgb(153, 153, 152);"></path></g><g class="ld ld-breath" style="transform-origin: 50px 50px 0px; animation-duration: 1s; animation-delay: -0.367647s; animation-direction: normal;"><path id="XMLID_458_" class="st1" d="M61.646,35.726c0.064-0.094,0.016-0.059-0.035,0.02 C61.625,35.744,61.637,35.738,61.646,35.726z" fill="rgb(153, 153, 152)" style="fill: rgb(153, 153, 152);"></path></g><g class="ld ld-breath" style="transform-origin: 50px 50px 0px; animation-duration: 1s; animation-delay: -0.352941s; animation-direction: normal;"><path id="XMLID_459_" class="st1" d="M61.306,33.666C61.304,33.659,61.23,33.484,61.306,33.666L61.306,33.666z" fill="rgb(153, 153, 152)" style="fill: rgb(153, 153, 152);"></path></g><g class="ld ld-breath" style="transform-origin: 50px 50px 0px; animation-duration: 1s; animation-delay: -0.338235s; animation-direction: normal;"><path id="XMLID_460_" class="st1" d="M44.413,21.614c-0.008,0.018-0.023,0.049-0.053,0.112 C44.371,21.704,44.399,21.644,44.413,21.614z" fill="rgb(153, 153, 152)" style="fill: rgb(153, 153, 152);"></path></g><g class="ld ld-breath" style="transform-origin: 50px 50px 0px; animation-duration: 1s; animation-delay: -0.323529s; animation-direction: normal;"><path id="XMLID_461_" class="st1" d="M44.413,21.614C44.424,21.591,44.422,21.594,44.413,21.614L44.413,21.614z" fill="rgb(153, 153, 152)" style="fill: rgb(153, 153, 152);"></path></g><g class="ld ld-breath" style="transform-origin: 50px 50px 0px; animation-duration: 1s; animation-delay: -0.308824s; animation-direction: normal;"><path id="XMLID_462_" class="st1" d="M44.568,21.222l-0.105,0.258C44.504,21.394,44.557,21.288,44.568,21.222z" fill="rgb(153, 153, 152)" style="fill: rgb(153, 153, 152);"></path></g><g class="ld ld-breath" style="transform-origin: 50px 50px 0px; animation-duration: 1s; animation-delay: -0.294118s; animation-direction: normal;"><path id="XMLID_463_" class="st1" d="M42.305,25.447c0.2-0.274,0.421-0.507,0.513-0.804C42.644,24.909,42.473,25.177,42.305,25.447 z" fill="rgb(153, 153, 152)" style="fill: rgb(153, 153, 152);"></path></g><g class="ld ld-breath" style="transform-origin: 50px 50px 0px; animation-duration: 1s; animation-delay: -0.279412s; animation-direction: normal;"><path id="XMLID_464_" class="st1" d="M42.305,25.447C42.444,25.256,42.335,25.196,42.305,25.447L42.305,25.447z" fill="rgb(153, 153, 152)" style="fill: rgb(153, 153, 152);"></path></g><g class="ld ld-breath" style="transform-origin: 50px 50px 0px; animation-duration: 1s; animation-delay: -0.264706s; animation-direction: normal;"><path id="XMLID_465_" class="st1" d="M39.473,27.395c-0.603,0.39,0.089,0.237-0.399,0.775c0.212-0.155,0.398-0.398,0.583-0.584 C39.402,27.699,39.341,27.635,39.473,27.395z" fill="rgb(153, 153, 152)" style="fill: rgb(153, 153, 152);"></path></g><g class="ld ld-breath" style="transform-origin: 50px 50px 0px; animation-duration: 1s; animation-delay: -0.25s; animation-direction: normal;"><path id="XMLID_466_" class="st1" d="M37.066,29.771c-0.1,0.277-0.121,0.348,0.192,0.185 C37.507,29.594,37.109,29.837,37.066,29.771z" fill="rgb(153, 153, 152)" style="fill: rgb(153, 153, 152);"></path></g><g class="ld ld-breath" style="transform-origin: 50px 50px 0px; animation-duration: 1s; animation-delay: -0.235294s; animation-direction: normal;"><path id="XMLID_467_" class="st1" d="M41.911,38.225c0.34-0.061,0.007-0.182,0.053-0.469L41.911,38.225z" fill="rgb(153, 153, 152)" style="fill: rgb(153, 153, 152);"></path></g><g class="ld ld-breath" style="transform-origin: 50px 50px 0px; animation-duration: 1s; animation-delay: -0.220588s; animation-direction: normal;"><path id="XMLID_468_" class="st1" d="M45.557,35.417c-0.108-0.101-0.216-0.202-0.324-0.303c-0.058,0.142-0.115,0.284-0.173,0.426 C45.226,35.5,45.391,35.459,45.557,35.417z" fill="rgb(153, 153, 152)" style="fill: rgb(153, 153, 152);"></path></g><g class="ld ld-breath" style="transform-origin: 50px 50px 0px; animation-duration: 1s; animation-delay: -0.205882s; animation-direction: normal;"><path id="XMLID_469_" class="st1" d="M47.51,38.842c0.14-0.028,0.28-0.056,0.421-0.084C47.88,38.772,47.082,38.89,47.51,38.842z" fill="rgb(153, 153, 152)" style="fill: rgb(153, 153, 152);"></path></g><g class="ld ld-breath" style="transform-origin: 50px 50px 0px; animation-duration: 1s; animation-delay: -0.191176s; animation-direction: normal;"><path id="XMLID_470_" class="st1" d="M63.307,28.231l-0.447,0.383C63.065,28.759,63.648,28.467,63.307,28.231z" fill="rgb(153, 153, 152)" style="fill: rgb(153, 153, 152);"></path></g><g class="ld ld-breath" style="transform-origin: 50px 50px 0px; animation-duration: 1s; animation-delay: -0.176471s; animation-direction: normal;"><path id="XMLID_471_" class="st1" d="M56.47,16.057c0.089,0.286,0.01,0.651,0.142,0.757C56.813,16.561,56.825,16.146,56.47,16.057z " fill="rgb(153, 153, 152)" style="fill: rgb(153, 153, 152);"></path></g><g class="ld ld-breath" style="transform-origin: 50px 50px 0px; animation-duration: 1s; animation-delay: -0.161765s; animation-direction: normal;"><path id="XMLID_472_" class="st1" d="M48.844,38.514c-0.063-0.091-0.127-0.181-0.19-0.272 C48.77,38.832,48.874,38.523,48.844,38.514z" fill="rgb(153, 153, 152)" style="fill: rgb(153, 153, 152);"></path></g></g></g><metadata xmlns:d="https://loading.io/stock/" class="ld ld-breath" style="transform-origin: 50px 50px 0px; animation-duration: 1s; animation-delay: -0.147059s; animation-direction: normal;">
<d:name class="ld ld-breath" style="transform-origin: 50px 50px 0px; animation-duration: 1s; animation-delay: -0.132353s; animation-direction: normal;">up</d:name>
<d:tags class="ld ld-breath" style="transform-origin: 50px 50px 0px; animation-duration: 1s; animation-delay: -0.117647s; animation-direction: normal;">top,forth,sketch,draw,up,arrow</d:tags>
<d:license class="ld ld-breath" style="transform-origin: 50px 50px 0px; animation-duration: 1s; animation-delay: -0.102941s; animation-direction: normal;">rf</d:license>
<d:slug class="ld ld-breath" style="transform-origin: 50px 50px 0px; animation-duration: 1s; animation-delay: -0.0882353s; animation-direction: normal;">33j6i4</d:slug>
</metadata></g></g></g></g><style type="text/css" class="ld ld-breath" style="transform-origin: 50px 50px 0px; animation-duration: 1s; animation-delay: -0.0735294s; animation-direction: normal;">@keyframes ld-breath {
  0% {
    -webkit-transform: scale(0.86);
    transform: scale(0.86);
  }
  50% {
    -webkit-transform: scale(1.06);
    transform: scale(1.06);
  }
  100% {
    -webkit-transform: scale(0.86);
    transform: scale(0.86);
  }
}
@-webkit-keyframes ld-breath {
  0% {
    -webkit-transform: scale(0.86);
    transform: scale(0.86);
  }
  50% {
    -webkit-transform: scale(1.06);
    transform: scale(1.06);
  }
  100% {
    -webkit-transform: scale(0.86);
    transform: scale(0.86);
  }
}
.ld.ld-breath {
  -webkit-animation: ld-breath 1s infinite;
  animation: ld-breath 1s infinite;
}
</style></svg></svg>