<svg class="ldi-ntsq9a" width="200px"  height="200px"  xmlns="http://www.w3.org/2000/svg" xmlns:xlink="http://www.w3.org/1999/xlink" viewBox="0 0 100 100" preserveAspectRatio="xMidYMid" style="background: none;"><!--?xml version="1.0" encoding="utf-8"?--><!--Generator: Adobe Illustrator 21.0.0, SVG Export Plug-In . SVG Version: 6.00 Build 0)--><svg version="1.1" id="圖層_1" xmlns="http://www.w3.org/2000/svg" xmlns:xlink="http://www.w3.org/1999/xlink" x="0px" y="0px" viewBox="0 0 100 100" style="transform-origin: 50px 50px 0px;" xml:space="preserve"><g style="transform-origin: 50px 50px 0px;"><g style="transform-origin: 50px 50px 0px; transform: scale(0.6);"><g style="transform-origin: 50px 50px 0px;"><g><style type="text/css" class="ld ldt-bounce-in" style="transform-origin: 50px 50px 0px; animation-duration: 1s; animation-delay: 0s; animation-direction: normal;">.st0{fill:#849B87;stroke:#333333;stroke-width:3;stroke-miterlimit:10;} .st1{fill:#A0C8D7;stroke:#333333;stroke-width:3;stroke-miterlimit:10;} .st2{fill:#F5E6C8;} .st3{fill:#ABBD81;} .st4{fill:#F5E6C8;stroke:#000000;stroke-width:2.5;stroke-miterlimit:10;} .st5{fill:#333333;} .st6{fill:#F5E6C8;stroke:#000000;stroke-width:3.5;stroke-miterlimit:10;} .st7{fill:#849B87;} .st8{fill:#F5E6C8;stroke:#333333;stroke-width:4;stroke-miterlimit:10;} .st9{fill:#C33737;} .st10{fill:#A0C8D7;} .st11{fill:#F5E6C8;stroke:#333333;stroke-width:3;stroke-miterlimit:10;} .st12{fill:#A3A3A3;} .st13{fill:#F5E6C8;stroke:#000000;stroke-width:3.8621;stroke-miterlimit:10;} .st14{fill:#FFDC6C;} .st15{fill:#ABBD81;stroke:#333333;stroke-width:3;stroke-miterlimit:10;} .st16{fill:#E15B64;} .st17{fill:#F5E6C8;stroke:#333333;stroke-width:3.6781;stroke-miterlimit:10;} .st18{fill:#F5E6C8;stroke:#333333;stroke-width:2.7586;stroke-miterlimit:10;} .st19{fill:#F5E6C8;stroke:#333333;stroke-width:3.9518;stroke-miterlimit:10;} .st20{fill:#FFFFFF;stroke:#333333;stroke-width:3.9092;stroke-miterlimit:10;} .st21{fill:#FFFFFF;stroke:#333333;stroke-width:3.6699;stroke-miterlimit:10;} .st22{fill:#F5E6C8;stroke:#000000;stroke-width:3;stroke-miterlimit:10;} .st23{fill:#F47E60;} .st24{fill:#F8B26A;} .st25{fill:#FFFFFF;} .st26{fill:#F5E6C8;stroke:#000000;stroke-width:3.9059;stroke-miterlimit:10;} .st27{fill:#F5E6C8;stroke:#000000;stroke-width:4;stroke-miterlimit:10;} .st28{fill:#C33636;} .st29{fill:#F5E6C8;stroke:#000000;stroke-width:3.8153;stroke-miterlimit:10;} .st30{fill:#E0E0E0;} .st31{fill:#F5E6C8;stroke:#000000;stroke-width:2.9643;stroke-miterlimit:10;} .st32{fill:#E15B64;stroke:#000000;stroke-width:2.9419;stroke-miterlimit:10;} .st33{fill:#666666;} .st34{fill:#FCEDCE;} .st35{fill:#FFF2D9;} .st36{fill:#7A8F7C;} .st37{fill:#96B099;}</style><g class="ld ldt-bounce-in" style="transform-origin: 50px 50px 0px; animation-duration: 1s; animation-delay: 0.0833333s; animation-direction: normal;"><path class="st8" d="M50,13.353c-24.064,0-40,11.146-40,34.452c0,9.677,2.755,17.251,7.691,22.808 c-1.155,5.485-2.723,10.562-4.381,13.492c-0.725,1.281,0.459,2.871,1.879,2.484c0.015-0.004,0.03-0.008,0.044-0.012 c4.011-1.133,9.002-4.158,13.906-7.998c5.886,2.459,12.928,3.678,20.861,3.678c24.064,0,40-11.146,40-34.452 C90,24.499,74.064,13.353,50,13.353z" fill="rgb(245, 230, 200)" stroke="rgb(51, 51, 51)" style="fill: rgb(245, 230, 200); stroke: rgb(51, 51, 51);"></path></g><g class="ld ldt-bounce-in" style="transform-origin: 50px 50px 0px; animation-duration: 1s; animation-delay: 0.166667s; animation-direction: normal;"><path class="st7" d="M55.293,41.609c0.113-0.624,0.426-1.108,0.937-1.449c0.369-0.256,0.753-0.383,1.15-0.383 c0.17,0,0.341,0.015,0.511,0.043l1.022,0.256c0.54,0.114,0.937,0.412,1.193,0.895c0.17,0.313,0.256,0.625,0.256,0.937 c0,0.199-0.043,0.398-0.128,0.596c-0.057,0.17,0,0.284,0.17,0.341c2.499,0.88,4.473,2.244,5.922,4.09 c1.449,1.847,2.173,3.991,2.173,6.433c0,1.449-0.213,2.827-0.639,4.133c-0.426,1.307-1.079,2.55-1.96,3.728 c-0.88,1.179-2.102,2.23-3.664,3.153c-1.562,0.923-3.394,1.626-5.496,2.109c-0.256,0.085-0.511,0.128-0.767,0.128 c-0.454,0-0.909-0.1-1.363-0.298c-0.71-0.313-1.264-0.795-1.662-1.449l-0.213-0.298c-0.17-0.284-0.256-0.568-0.256-0.852 c0-0.227,0.057-0.454,0.17-0.682c0.256-0.539,0.667-0.866,1.236-0.98c3.095-0.682,5.41-1.839,6.944-3.472 c1.534-1.633,2.301-3.458,2.301-5.475c0-1.306-0.355-2.478-1.065-3.515c-0.71-1.037-1.733-1.853-3.067-2.45 c-0.199-0.085-0.341-0.028-0.426,0.17c-2.215,5.311-5.14,9.515-8.776,12.611c-0.142,0.142-0.185,0.313-0.128,0.511 c0.028,0.17,0.071,0.341,0.128,0.511c0.085,0.256,0.128,0.511,0.128,0.767c0,0.398-0.1,0.782-0.298,1.15 c-0.313,0.596-0.795,0.995-1.449,1.193l-1.022,0.298c-0.426,0.142-0.845,0.107-1.257-0.107c-0.412-0.213-0.675-0.533-0.788-0.959 c-0.057-0.142-0.142-0.185-0.256-0.128c-2.273,1.108-4.445,1.662-6.518,1.662c-1.704,0-3.103-0.533-4.196-1.598 c-1.094-1.065-1.64-2.634-1.64-4.708c0-2.669,0.973-5.311,2.918-7.924c1.945-2.613,4.41-4.658,7.392-6.135 c0.198-0.085,0.312-0.241,0.341-0.469c0.142-2.073,0.27-3.664,0.383-4.772c0-0.198-0.1-0.298-0.298-0.298h-1.065 c-1.165,0-2.883-0.057-5.155-0.17c-0.71-0.028-1.307-0.284-1.789-0.767c-0.54-0.539-0.809-1.178-0.809-1.917 c0-0.624,0.241-1.15,0.724-1.576c0.426-0.398,0.909-0.596,1.449-0.596c0.085,0,0.17,0.015,0.256,0.043 c2.158,0.17,3.99,0.256,5.496,0.256h1.321c0.227,0,0.341-0.099,0.341-0.298l0.256-2.002v-0.043c0.085-0.71,0.369-1.306,0.852-1.789 c0.483-0.454,1.05-0.682,1.704-0.682c0.028,0,0.057,0,0.085,0h0.639c0.624,0.028,1.136,0.298,1.534,0.809 c0.256,0.369,0.383,0.767,0.383,1.193c0,0.17-0.015,0.341-0.043,0.511c-0.114,0.454-0.228,1.08-0.341,1.875 c-0.028,0.085-0.015,0.156,0.043,0.213c0.057,0.057,0.128,0.085,0.213,0.085c4.346-0.17,8.307-0.596,11.886-1.278 c0.17-0.028,0.327-0.043,0.469-0.043c0.454,0,0.866,0.142,1.236,0.426c0.511,0.398,0.767,0.923,0.767,1.576 c0,0.71-0.227,1.335-0.682,1.875c-0.454,0.569-1.037,0.895-1.747,0.98c-3.607,0.54-7.811,0.937-12.61,1.193 c-0.199,0-0.313,0.1-0.341,0.298c-0.142,1.363-0.228,2.443-0.256,3.238c0,0.085,0.028,0.156,0.085,0.213 c0.057,0.057,0.128,0.071,0.213,0.043c2.13-0.454,4.175-0.682,6.135-0.682h0.469C55.151,41.908,55.265,41.808,55.293,41.609z M39.615,59.546c1.165,0,2.514-0.411,4.047-1.236c0.198-0.085,0.27-0.241,0.213-0.469c-0.454-2.755-0.739-5.425-0.852-8.01 c0-0.057-0.028-0.099-0.085-0.128c-0.057-0.028-0.114-0.028-0.17,0c-1.534,1.08-2.776,2.343-3.728,3.792 c-0.952,1.449-1.427,2.769-1.427,3.962C37.612,58.85,38.28,59.546,39.615,59.546z M48.178,47.148 c-0.199,0.057-0.298,0.199-0.298,0.426c0,2.329,0.142,4.531,0.426,6.604c0,0.057,0.036,0.1,0.107,0.128 c0.071,0.028,0.121,0.015,0.149-0.043c2.187-2.215,3.891-4.772,5.112-7.669c0.028-0.085,0.021-0.156-0.021-0.213 c-0.043-0.057-0.107-0.085-0.192-0.085C51.643,46.353,49.882,46.637,48.178,47.148z" fill="rgb(132, 155, 135)" style="fill: rgb(132, 155, 135);"></path></g><metadata xmlns:d="https://loading.io/stock/" class="ld ldt-bounce-in" style="transform-origin: 50px 50px 0px; animation-duration: 1s; animation-delay: 0.25s; animation-direction: normal;">
<d:name class="ld ldt-bounce-in" style="transform-origin: 50px 50px 0px; animation-duration: 1s; animation-delay: 0.333333s; animation-direction: normal;">language</d:name>
<d:tags class="ld ldt-bounce-in" style="transform-origin: 50px 50px 0px; animation-duration: 1s; animation-delay: 0.416667s; animation-direction: normal;">japaness,diallect,translation,language,conversation</d:tags>
<d:license class="ld ldt-bounce-in" style="transform-origin: 50px 50px 0px; animation-duration: 1s; animation-delay: 0.5s; animation-direction: normal;">rf</d:license>
<d:slug class="ld ldt-bounce-in" style="transform-origin: 50px 50px 0px; animation-duration: 1s; animation-delay: 0.583333s; animation-direction: normal;">ntsq9a</d:slug>
</metadata></g></g></g></g><style type="text/css" class="ld ldt-bounce-in" style="transform-origin: 50px 50px 0px; animation-duration: 1s; animation-delay: 0.666667s; animation-direction: normal;">@keyframes ldt-bounce-in {
  0% {
    -webkit-transform: scale(0);
    transform: scale(0);
  }
  5% {
    -webkit-transform: scale(0.0846);
    transform: scale(0.0846);
  }
  6% {
    -webkit-transform: scale(0.191);
    transform: scale(0.191);
  }
  7% {
    -webkit-transform: scale(0.3255);
    transform: scale(0.3255);
  }
  8% {
    -webkit-transform: scale(0.4804);
    transform: scale(0.4804);
  }
  9% {
    -webkit-transform: scale(0.646);
    transform: scale(0.646);
  }
  10% {
    -webkit-transform: scale(0.8116);
    transform: scale(0.8116);
  }
  11% {
    -webkit-transform: scale(0.9665);
    transform: scale(0.9665);
  }
  12% {
    -webkit-transform: scale(1.1);
    transform: scale(1.1);
  }
  13% {
    -webkit-transform: scale(1.2069);
    transform: scale(1.2069);
  }
  14% {
    -webkit-transform: scale(1.2796);
    transform: scale(1.2796);
  }
  19% {
    -webkit-transform: scale(1.1558);
    transform: scale(1.1558);
  }
  20% {
    -webkit-transform: scale(1.07);
    transform: scale(1.07);
  }
  21% {
    -webkit-transform: scale(0.9823);
    transform: scale(0.9823);
  }
  22% {
    -webkit-transform: scale(0.901);
    transform: scale(0.901);
  }
  23% {
    -webkit-transform: scale(0.8328);
    transform: scale(0.8328);
  }
  25% {
    -webkit-transform: scale(0.7551);
    transform: scale(0.7551);
  }
  29% {
    -webkit-transform: scale(0.8516);
    transform: scale(0.8516);
  }
  31% {
    -webkit-transform: scale(0.973);
    transform: scale(0.973);
  }
  33% {
    -webkit-transform: scale(1.0857);
    transform: scale(1.0857);
  }
  35% {
    -webkit-transform: scale(1.1538);
    transform: scale(1.1538);
  }
  40% {
    -webkit-transform: scale(1.0771);
    transform: scale(1.0771);
  }
  42% {
    -webkit-transform: scale(0.9954);
    transform: scale(0.9954);
  }
  45% {
    -webkit-transform: scale(0.9057);
    transform: scale(0.9057);
  }
  52% {
    -webkit-transform: scale(0.9908);
    transform: scale(0.9908);
  }
  56% {
    -webkit-transform: scale(1.0623);
    transform: scale(1.0623);
  }
  64% {
    -webkit-transform: scale(0.9845);
    transform: scale(0.9845);
  }
  100% {
    -webkit-transform: scale(1);
    transform: scale(1);
  }
}
@-webkit-keyframes ldt-bounce-in {
  0% {
    -webkit-transform: scale(0);
    transform: scale(0);
  }
  5% {
    -webkit-transform: scale(0.0846);
    transform: scale(0.0846);
  }
  6% {
    -webkit-transform: scale(0.191);
    transform: scale(0.191);
  }
  7% {
    -webkit-transform: scale(0.3255);
    transform: scale(0.3255);
  }
  8% {
    -webkit-transform: scale(0.4804);
    transform: scale(0.4804);
  }
  9% {
    -webkit-transform: scale(0.646);
    transform: scale(0.646);
  }
  10% {
    -webkit-transform: scale(0.8116);
    transform: scale(0.8116);
  }
  11% {
    -webkit-transform: scale(0.9665);
    transform: scale(0.9665);
  }
  12% {
    -webkit-transform: scale(1.1);
    transform: scale(1.1);
  }
  13% {
    -webkit-transform: scale(1.2069);
    transform: scale(1.2069);
  }
  14% {
    -webkit-transform: scale(1.2796);
    transform: scale(1.2796);
  }
  19% {
    -webkit-transform: scale(1.1558);
    transform: scale(1.1558);
  }
  20% {
    -webkit-transform: scale(1.07);
    transform: scale(1.07);
  }
  21% {
    -webkit-transform: scale(0.9823);
    transform: scale(0.9823);
  }
  22% {
    -webkit-transform: scale(0.901);
    transform: scale(0.901);
  }
  23% {
    -webkit-transform: scale(0.8328);
    transform: scale(0.8328);
  }
  25% {
    -webkit-transform: scale(0.7551);
    transform: scale(0.7551);
  }
  29% {
    -webkit-transform: scale(0.8516);
    transform: scale(0.8516);
  }
  31% {
    -webkit-transform: scale(0.973);
    transform: scale(0.973);
  }
  33% {
    -webkit-transform: scale(1.0857);
    transform: scale(1.0857);
  }
  35% {
    -webkit-transform: scale(1.1538);
    transform: scale(1.1538);
  }
  40% {
    -webkit-transform: scale(1.0771);
    transform: scale(1.0771);
  }
  42% {
    -webkit-transform: scale(0.9954);
    transform: scale(0.9954);
  }
  45% {
    -webkit-transform: scale(0.9057);
    transform: scale(0.9057);
  }
  52% {
    -webkit-transform: scale(0.9908);
    transform: scale(0.9908);
  }
  56% {
    -webkit-transform: scale(1.0623);
    transform: scale(1.0623);
  }
  64% {
    -webkit-transform: scale(0.9845);
    transform: scale(0.9845);
  }
  100% {
    -webkit-transform: scale(1);
    transform: scale(1);
  }
}
.ldt-bounce-in {
  -webkit-transform: scale(0);
  transform: scale(0);
  -webkit-animation: ldt-bounce-in 1s ease-out forwards;
  animation: ldt-bounce-in 1s ease-out forwards;
}
</style></svg></svg>