<svg class="ldi-20p7pv" width="200px"  height="200px"  xmlns="http://www.w3.org/2000/svg" xmlns:xlink="http://www.w3.org/1999/xlink" viewBox="0 0 100 100" preserveAspectRatio="xMidYMid" style="background: none;"><!--?xml version="1.0" encoding="utf-8"?--><!--Generator: Adobe Illustrator 21.0.0, SVG Export Plug-In . SVG Version: 6.00 Build 0)--><svg version="1.1" id="圖層_1" xmlns="http://www.w3.org/2000/svg" xmlns:xlink="http://www.w3.org/1999/xlink" x="0px" y="0px" viewBox="0 0 100 100" style="transform-origin: 50px 50px 0px;" xml:space="preserve"><g style="transform-origin: 50px 50px 0px;"><g style="transform-origin: 50px 50px 0px; transform: scale(0.6);"><g style="transform-origin: 50px 50px 0px; animation-duration: 1s; animation-delay: -1s; animation-direction: normal;" class=""><g><g style="transform-origin: 50px 50px 0px;"><g><g class="ld ldt-bounce-in" style="transform-origin: 50px 50px 0px; animation-duration: 1s; animation-delay: 0s; animation-direction: normal;"><path style="fill:#e15b64;stroke:#333;stroke-width:3.5;stroke-miterlimit:10" d="M72.4,63.8H28.3c-1,0-1.8-0.8-1.8-1.8v-7.2 c0-1,0.8-1.8,1.8-1.8h44.1c1,0,1.8,0.8,1.8,1.8v7.2C74.2,62.9,73.4,63.8,72.4,63.8z" fill="rgb(225, 91, 100)" stroke="rgb(51, 51, 51)"></path></g><g class="ld ldt-bounce-in" style="transform-origin: 50px 50px 0px; animation-duration: 1s; animation-delay: 0.0384615s; animation-direction: normal;"><path style="opacity: 0.1; stroke: rgb(0, 0, 0); stroke-width: 3.5; stroke-miterlimit: 10; fill: rgb(0, 0, 0);" d="M72.4,52.9h-8.2v6.6c0,2.3-1.9,4.2-4.2,4.2 h12.4c1,0,1.8-0.8,1.8-1.8v-7.2C74.2,53.7,73.4,52.9,72.4,52.9z" fill="rgb(0, 0, 0)" stroke="rgb(0, 0, 0)"></path></g><g class="ld ldt-bounce-in" style="transform-origin: 50px 50px 0px; animation-duration: 1s; animation-delay: 0.0769231s; animation-direction: normal;"><path style="fill:#e15b64;stroke:#333;stroke-width:3.5;stroke-miterlimit:10" d="M69.7,63.8H31L36.3,90 c0.3,1.5,1.6,2.5,3.1,2.5h21.9c1.5,0,2.8-1.1,3.1-2.5L69.7,63.8z" fill="rgb(225, 91, 100)" stroke="rgb(51, 51, 51)"></path></g><g class="ld ldt-bounce-in" style="transform-origin: 50px 50px 0px; animation-duration: 1s; animation-delay: 0.115385s; animation-direction: normal;"><line style="fill:#e15b64;stroke:#333;stroke-width:3.5;stroke-linecap:round;stroke-miterlimit:10" x1="39.8" y1="79.6" x2="40" y2="80.9" fill="rgb(225, 91, 100)" stroke="rgb(51, 51, 51)"></line></g><g class="ld ldt-bounce-in" style="transform-origin: 50px 50px 0px; animation-duration: 1s; animation-delay: 0.153846s; animation-direction: normal;"><line style="fill:#e15b64;stroke:#333;stroke-width:3.5;stroke-linecap:round;stroke-miterlimit:10" x1="37.8" y1="70" x2="38.7" y2="74.6" fill="rgb(225, 91, 100)" stroke="rgb(51, 51, 51)"></line></g><g class="ld ldt-bounce-in" style="transform-origin: 50px 50px 0px; animation-duration: 1s; animation-delay: 0.192308s; animation-direction: normal;"><path style="opacity: 0.1; stroke: rgb(0, 0, 0); stroke-width: 3.5; stroke-miterlimit: 10; fill: rgb(0, 0, 0);" d="M69.7,63.8h-7.9H31l1.3,6.2h28.4l-2.4,11.8 c-1.3,6.2-6.7,10.7-13.1,10.7h16.2c1.5,0,2.8-1.1,3.1-2.5l4.1-20l0,0L69.7,63.8z" fill="rgb(0, 0, 0)" stroke="rgb(0, 0, 0)"></path></g></g></g><g style="transform-origin: 50px 50px 0px;"><g><g style="transform-origin: 50px 50px 0px;"><g><g class="ld ldt-bounce-in" style="transform-origin: 50px 50px 0px; animation-duration: 1s; animation-delay: 0.230769s; animation-direction: normal;"><path style="fill:#333" d="M47.6,52.5l0.7-3c0.4-1,0.6-2,1.1-3c0.8-2,2.2-3.9,3.8-5.4c1.6-1.5,3.4-2.6,5.1-3.5 c1.6-0.9,3.1-1.9,4.5-2.9c1.3-1.1,2.6-2.3,3.7-3.7c0.3-0.4,0.6-0.7,0.8-1.1l0.7-1.1c0.5-0.8,0.9-1.5,1.4-2.3 c0.8-1.6,1.4-3.3,1.5-5c0.1-0.9,0-1.7-0.2-2.5c-0.2-0.8-0.5-1.6-0.9-2.6c1,0.3,1.8,1.2,2.2,2.1c0.4,1,0.6,2,0.7,3 c0.1,2.1-0.4,4.1-1.1,5.9c-0.4,0.9-0.7,1.9-1.2,2.7l-0.7,1.3c-0.2,0.4-0.5,0.9-0.8,1.3c-0.3,0.4-0.5,0.9-0.8,1.3l-0.9,1.2 l-0.5,0.6l-0.5,0.6c-0.3,0.4-0.7,0.7-1.1,1.1c-1.5,1.4-3.1,2.6-4.7,3.7c-1.6,1.1-3,2.1-4,3.3c-2.1,2.3-3,5.5-3.4,9L47.6,52.5z" fill="rgb(51, 51, 51)"></path></g></g></g><g class="ld ldt-bounce-in" style="transform-origin: 50px 50px 0px; animation-duration: 1s; animation-delay: 0.269231s; animation-direction: normal;"><path style="fill:#abbd81;stroke:#333;stroke-width:3.5;stroke-miterlimit:10" d="M83.1,26.5C77.5,33,71.7,33,67.6,29.4 s-5.1-9.3,0.4-15.8s18.3-6.2,18.3-6.2S88.6,20,83.1,26.5z" stroke="rgb(51, 51, 51)" fill="rgb(171, 189, 129)"></path></g><g class="ld ldt-bounce-in" style="transform-origin: 50px 50px 0px; animation-duration: 1s; animation-delay: 0.307692s; animation-direction: normal;"><path style="opacity: 0.1; stroke: rgb(0, 0, 0); stroke-width: 3.5; stroke-linecap: round; stroke-linejoin: round; stroke-miterlimit: 10; fill: rgb(0, 0, 0);" d=" M86.3,7.5c0,0-0.7,0-1.8,0c-0.9,3.8-2.4,7.9-4.8,11.4c-4.2,6.2-8.2,9.6-11.7,10.8c4.1,3.3,9.8,3.1,15.2-3.2 C88.6,20,86.3,7.5,86.3,7.5z" fill="rgb(0, 0, 0)" stroke="rgb(0, 0, 0)"></path></g></g></g><g style="transform-origin: 50px 50px 0px;"><g><g style="transform-origin: 50px 50px 0px;"><g><g class="ld ldt-bounce-in" style="transform-origin: 50px 50px 0px; animation-duration: 1s; animation-delay: 0.346154s; animation-direction: normal;"><path style="fill:#333" d="M50.6,47l-3.2-5.1c-1.1-1.6-2.2-3.2-3.4-4.6c-1.2-1.3-2.7-2.2-4.5-2.7c-1.8-0.4-3.8-0.3-5.9-0.1 c0.5-0.2,0.9-0.5,1.4-0.7c0.5-0.2,1-0.4,1.5-0.6c0.5-0.2,1-0.3,1.5-0.4c0.5-0.1,1.1-0.1,1.6-0.2c2.2-0.1,4.6,0.8,6.4,2.1 c1.9,1.3,3.4,2.8,4.8,4.3c1.4,1.5,2.8,3.1,4.1,4.6L50.6,47z" fill="rgb(51, 51, 51)"></path></g></g></g><g class="ld ldt-bounce-in" style="transform-origin: 50px 50px 0px; animation-duration: 1s; animation-delay: 0.384615s; animation-direction: normal;"><path style="fill:#abbd81;stroke:#333;stroke-width:3.5;stroke-miterlimit:10" d="M30.2,21.5c8.5,0.3,12.1,4.9,11.9,10.4 s-4.1,9.7-12.7,9.4S13.2,30.8,13.2,30.8S21.6,21.2,30.2,21.5z" stroke="rgb(51, 51, 51)" fill="rgb(171, 189, 129)"></path></g><g class="ld ldt-bounce-in" style="transform-origin: 50px 50px 0px; animation-duration: 1s; animation-delay: 0.423077s; animation-direction: normal;"><path style="opacity: 0.1; stroke: rgb(0, 0, 0); stroke-width: 3.5; stroke-linecap: round; stroke-linejoin: round; stroke-miterlimit: 10; fill: rgb(0, 0, 0);" d=" M26.9,35.3c-4.8-0.5-9.3-2.9-12.8-5.4c-0.5,0.5-0.8,0.9-0.8,0.9S20.8,41,29.4,41.3c8.5,0.3,12.5-3.9,12.7-9.4c0,0,0,0,0-0.1 C39.5,34.6,34.5,36.2,26.9,35.3z" fill="rgb(0, 0, 0)" stroke="rgb(0, 0, 0)"></path></g></g></g><metadata xmlns:d="https://loading.io/stock/" class="ld ldt-bounce-in" style="transform-origin: 50px 50px 0px; animation-duration: 1s; animation-delay: 0.461538s; animation-direction: normal;">
<d:name class="ld ldt-bounce-in" style="transform-origin: 50px 50px 0px; animation-duration: 1s; animation-delay: 0.5s; animation-direction: normal;">potting</d:name>
<d:tags class="ld ldt-bounce-in" style="transform-origin: 50px 50px 0px; animation-duration: 1s; animation-delay: 0.538462s; animation-direction: normal;">potting,potted plants,pottery,bonsai,pots,basin,bowl,tub,plant,cultivate</d:tags>
<d:license class="ld ldt-bounce-in" style="transform-origin: 50px 50px 0px; animation-duration: 1s; animation-delay: 0.576923s; animation-direction: normal;">cc-by</d:license>
<d:slug class="ld ldt-bounce-in" style="transform-origin: 50px 50px 0px; animation-duration: 1s; animation-delay: 0.615385s; animation-direction: normal;">20p7pv</d:slug>
</metadata></g></g></g></g><style type="text/css" class="ld ldt-bounce-in" style="transform-origin: 50px 50px 0px; animation-duration: 1s; animation-delay: 0.653846s; animation-direction: normal;">@keyframes ldt-bounce-in {
  0% {
    -webkit-transform: scale(0);
    transform: scale(0);
  }
  5% {
    -webkit-transform: scale(0.0846);
    transform: scale(0.0846);
  }
  6% {
    -webkit-transform: scale(0.191);
    transform: scale(0.191);
  }
  7% {
    -webkit-transform: scale(0.3255);
    transform: scale(0.3255);
  }
  8% {
    -webkit-transform: scale(0.4804);
    transform: scale(0.4804);
  }
  9% {
    -webkit-transform: scale(0.646);
    transform: scale(0.646);
  }
  10% {
    -webkit-transform: scale(0.8116);
    transform: scale(0.8116);
  }
  11% {
    -webkit-transform: scale(0.9665);
    transform: scale(0.9665);
  }
  12% {
    -webkit-transform: scale(1.1);
    transform: scale(1.1);
  }
  13% {
    -webkit-transform: scale(1.2069);
    transform: scale(1.2069);
  }
  14% {
    -webkit-transform: scale(1.2796);
    transform: scale(1.2796);
  }
  19% {
    -webkit-transform: scale(1.1558);
    transform: scale(1.1558);
  }
  20% {
    -webkit-transform: scale(1.07);
    transform: scale(1.07);
  }
  21% {
    -webkit-transform: scale(0.9823);
    transform: scale(0.9823);
  }
  22% {
    -webkit-transform: scale(0.901);
    transform: scale(0.901);
  }
  23% {
    -webkit-transform: scale(0.8328);
    transform: scale(0.8328);
  }
  25% {
    -webkit-transform: scale(0.7551);
    transform: scale(0.7551);
  }
  29% {
    -webkit-transform: scale(0.8516);
    transform: scale(0.8516);
  }
  31% {
    -webkit-transform: scale(0.973);
    transform: scale(0.973);
  }
  33% {
    -webkit-transform: scale(1.0857);
    transform: scale(1.0857);
  }
  35% {
    -webkit-transform: scale(1.1538);
    transform: scale(1.1538);
  }
  40% {
    -webkit-transform: scale(1.0771);
    transform: scale(1.0771);
  }
  42% {
    -webkit-transform: scale(0.9954);
    transform: scale(0.9954);
  }
  45% {
    -webkit-transform: scale(0.9057);
    transform: scale(0.9057);
  }
  52% {
    -webkit-transform: scale(0.9908);
    transform: scale(0.9908);
  }
  56% {
    -webkit-transform: scale(1.0623);
    transform: scale(1.0623);
  }
  64% {
    -webkit-transform: scale(0.9845);
    transform: scale(0.9845);
  }
  100% {
    -webkit-transform: scale(1);
    transform: scale(1);
  }
}
@-webkit-keyframes ldt-bounce-in {
  0% {
    -webkit-transform: scale(0);
    transform: scale(0);
  }
  5% {
    -webkit-transform: scale(0.0846);
    transform: scale(0.0846);
  }
  6% {
    -webkit-transform: scale(0.191);
    transform: scale(0.191);
  }
  7% {
    -webkit-transform: scale(0.3255);
    transform: scale(0.3255);
  }
  8% {
    -webkit-transform: scale(0.4804);
    transform: scale(0.4804);
  }
  9% {
    -webkit-transform: scale(0.646);
    transform: scale(0.646);
  }
  10% {
    -webkit-transform: scale(0.8116);
    transform: scale(0.8116);
  }
  11% {
    -webkit-transform: scale(0.9665);
    transform: scale(0.9665);
  }
  12% {
    -webkit-transform: scale(1.1);
    transform: scale(1.1);
  }
  13% {
    -webkit-transform: scale(1.2069);
    transform: scale(1.2069);
  }
  14% {
    -webkit-transform: scale(1.2796);
    transform: scale(1.2796);
  }
  19% {
    -webkit-transform: scale(1.1558);
    transform: scale(1.1558);
  }
  20% {
    -webkit-transform: scale(1.07);
    transform: scale(1.07);
  }
  21% {
    -webkit-transform: scale(0.9823);
    transform: scale(0.9823);
  }
  22% {
    -webkit-transform: scale(0.901);
    transform: scale(0.901);
  }
  23% {
    -webkit-transform: scale(0.8328);
    transform: scale(0.8328);
  }
  25% {
    -webkit-transform: scale(0.7551);
    transform: scale(0.7551);
  }
  29% {
    -webkit-transform: scale(0.8516);
    transform: scale(0.8516);
  }
  31% {
    -webkit-transform: scale(0.973);
    transform: scale(0.973);
  }
  33% {
    -webkit-transform: scale(1.0857);
    transform: scale(1.0857);
  }
  35% {
    -webkit-transform: scale(1.1538);
    transform: scale(1.1538);
  }
  40% {
    -webkit-transform: scale(1.0771);
    transform: scale(1.0771);
  }
  42% {
    -webkit-transform: scale(0.9954);
    transform: scale(0.9954);
  }
  45% {
    -webkit-transform: scale(0.9057);
    transform: scale(0.9057);
  }
  52% {
    -webkit-transform: scale(0.9908);
    transform: scale(0.9908);
  }
  56% {
    -webkit-transform: scale(1.0623);
    transform: scale(1.0623);
  }
  64% {
    -webkit-transform: scale(0.9845);
    transform: scale(0.9845);
  }
  100% {
    -webkit-transform: scale(1);
    transform: scale(1);
  }
}
.ldt-bounce-in {
  -webkit-transform: scale(0);
  transform: scale(0);
  -webkit-animation: ldt-bounce-in 1s ease-out forwards;
  animation: ldt-bounce-in 1s ease-out forwards;
}
</style></svg></svg>